<svg version="1.1" id="Layer_1" xmlns:sketch="http://www.bohemiancoding.com/sketch/ns"
	 xmlns="http://www.w3.org/2000/svg" xmlns:xlink="http://www.w3.org/1999/xlink" x="0px" y="0px" width="376px" height="148px"
	 viewBox="0 0 376 148" enable-background="new 0 0 376 148" xml:space="preserve">
<title>dirt</title>
<desc>Created with Sketch.</desc>
<g id="Page-1" sketch:type="MSPage">
	<g id="dirt" transform="translate(-0.003290, 0.157900)" sketch:type="MSLayerGroup">

			<linearGradient id="Shape_20_" gradientUnits="userSpaceOnUse" x1="29.1298" y1="102.3314" x2="30.1298" y2="102.3314" gradientTransform="matrix(371.1563 0 0 -147.5939 -10811.6709 15177.3447)">
			<stop  offset="0" style="stop-color:#593D09"/>
			<stop  offset="1" style="stop-color:#7F5200"/>
		</linearGradient>
		<path id="Shape" sketch:type="MSShapeGroup" fill="url(#Shape_20_)" d="M273.222,0.13c-4.047,0-7.747,1.272-10.625,3.406
			c-2.334-1.111-5.009-1.75-7.844-1.75c-9.152,0-16.563,6.582-16.563,14.688c0,1.588,0.285,3.13,0.813,4.563
			c-2.582,2.588-4.156,5.962-4.156,9.688c0,1.26,0.194,2.49,0.531,3.656c-1.484,0.427-2.857,1.023-4.125,1.781
			c-2.472,1.131-4.604,2.754-6.156,4.781c-0.003,0.001,0.003,0.03,0,0.031c-1.545,0.579-3,1.221-4.375,1.938
			c-2.619-6.062-7.615-10.459-13.563-11.5c-3.08-2.779-6.906-4.438-11.094-4.438c-3.958,0-7.635,1.46-10.625,3.969
			c-2.771-1.99-6.012-3.156-9.5-3.156c-9.503,0-17.295,8.533-18.156,19.406c-1.688-0.604-3.487-0.938-5.344-0.938
			c-5.604,0-10.621,2.966-13.969,7.625c-0.924-0.046-1.869-0.094-2.813-0.094c-2.94,0-5.774,0.229-8.5,0.656
			c-3.153-6.401-9.052-10.719-15.813-10.719c-7.671,0-14.238,5.549-16.938,13.406c-2.87-7.402-9.204-12.563-16.594-12.563
			c-5.575,0-10.559,2.946-13.906,7.563c-2.177-1.074-4.552-1.688-7.063-1.688c-7.538,0-14.029,5.359-16.813,13
			c-2.703-1.854-5.83-2.938-9.187-2.938c-6.773,0-12.694,4.329-15.844,10.75c-1.313-0.674-2.788-1.063-4.313-1.063
			c-5.909,0-10.688,5.607-10.688,12.531c0,6.925,4.779,12.531,10.688,12.531c1.793,0,3.516-0.492,5-1.406
			c0.063,0.111,0.153,0.205,0.219,0.313c1.4,4.023,4.534,6.993,8.313,7.656c2.051,0.936,4.292,1.469,6.625,1.469
			c3.28,0,6.34-1.036,9-2.813c1.288,5.229,5.404,9.063,10.281,9.063c0.783,0,1.547-0.094,2.281-0.281
			c2.315,1.119,4.886,1.75,7.594,1.75c2.292,0,4.476-0.465,6.5-1.281c1.887,1.965,4.368,3.156,7.094,3.156
			c3.396,0,6.415-1.857,8.375-4.75c4.402,7.922,16.109,13.738,30.156,14.375c1.845,3.769,5.308,6.313,9.281,6.313
			c3.563,0,6.712-2.049,8.656-5.188c1.012,1.078,2.147,2.115,3.438,3.063c0.829,5.957,5.245,10.5,10.563,10.5
			c2.896,0,5.511-1.342,7.438-3.531l0.281,0.031c1.611,4.534,5.423,7.719,9.875,7.719c1.278,0,2.52-0.268,3.656-0.75
			c6.333,4.342,15.516,7.063,25.719,7.063c13.527,0,25.215-4.789,30.906-11.781c0.775-0.033,1.551-0.092,2.313-0.156
			c2.14,0.918,4.51,1.469,7.031,1.469c6.913,0,12.827-3.863,15.313-9.344c0.415-0.32,0.803-0.633,1.188-0.969
			c0.906,0.141,1.831,0.25,2.781,0.25c1.436,0,2.828-0.188,4.156-0.5c1.846,3.769,5.309,6.313,9.281,6.313
			c4.316,0,8.027-2.998,9.719-7.313c0.926,0.143,1.872,0.219,2.844,0.219c3.162,0,6.111-0.795,8.625-2.156
			c1.913,2.102,4.484,3.375,7.313,3.375c4.541,0,8.416-3.322,9.969-8c0.446,0.047,0.889,0.094,1.344,0.094
			c1.123,0,2.221-0.162,3.281-0.438c1.782,1.557,3.982,2.469,6.375,2.469c4.41,0,8.207-3.128,9.844-7.594
			c2.511,1.396,5.469,2.188,8.625,2.188c6.441,0,12.008-3.33,14.75-8.219c1.916,0.706,4.025,1.094,6.219,1.094
			c9.152,0,16.563-6.756,16.563-15.094c0-0.987-0.113-1.939-0.313-2.875c1.275-2.139,2-4.582,2-7.188
			c0-4.866-2.544-9.176-6.469-11.937c0.381-1.271,0.594-2.619,0.594-4c0-8.338-7.441-15.094-16.594-15.094
			c-0.81,0-1.597,0.085-2.375,0.188c0.32-1.138,0.5-2.306,0.5-3.531c0-8.106-7.41-14.688-16.563-14.688
			c-0.265,0-0.52,0.021-0.781,0.031c-1.848-3.754-5.316-6.281-9.281-6.281c-1.549,0-3.015,0.4-4.344,1.094
			c-4.103-7.03-14-12.339-26.125-13.75c0.017-0.271,0.063-0.538,0.063-0.813C289.785,6.68,282.374,0.13,273.222,0.13L273.222,0.13z"
			/>

			<linearGradient id="Shape_25_" gradientUnits="userSpaceOnUse" x1="29.6488" y1="102.3294" x2="30.6488" y2="102.3294" gradientTransform="matrix(202.9375 0 0 -147.5938 -5848.2578 15177.334)">
			<stop  offset="0" style="stop-color:#563B09"/>
			<stop  offset="1" style="stop-color:#291D04"/>
		</linearGradient>
		<path id="Shape_1_" sketch:type="MSShapeGroup" fill="url(#Shape_25_)" d="M273.645,0.228c-4.047,0-7.747,1.272-10.625,3.406
			c-2.333-1.111-5.009-1.75-7.844-1.75c-1.396,0-2.736,0.18-4.031,0.469c2.925,2.228,5.685,4.556,8.219,6.938
			c11.3,1.246,20.063,10.258,20.063,21.219c0,2.389-0.419,4.698-1.188,6.844c1.646,5.01,2.531,10.165,2.531,15.438
			c0,0.02,0,0.041,0,0.063c4.45,3.904,7.219,9.45,7.219,15.625c0,11.705-10.002,21.235-22.406,21.407
			c-0.378,0.436-0.766,0.88-1.156,1.312c0.968,2.145,1.5,4.456,1.5,6.845c0,11.811-12.819,21.375-28.656,21.375
			c-1.409,0-2.802-0.073-4.156-0.22c-2.431,10.343-16.843,18.282-34.25,18.282c-6.076,0-11.787-0.957-16.75-2.657
			c-3.309,3.806-8.043,6.587-13.469,7.72c6.095,3.305,14.066,5.28,22.813,5.28c13.526,0,25.216-4.79,30.906-11.78
			c0.776-0.033,1.552-0.093,2.313-0.156c2.14,0.917,4.51,1.469,7.031,1.469c6.913,0,12.827-3.865,15.313-9.344
			c0.415-0.322,0.803-0.633,1.188-0.969c0.907,0.139,1.831,0.25,2.781,0.25c1.436,0,2.828-0.188,4.156-0.5
			c1.845,3.768,5.308,6.313,9.281,6.313c4.317,0,8.028-2.998,9.719-7.313c0.926,0.141,1.872,0.219,2.844,0.219
			c3.162,0,6.111-0.797,8.625-2.156c1.913,2.1,4.483,3.375,7.313,3.375c4.54,0,8.415-3.324,9.969-8
			c0.446,0.047,0.888,0.093,1.344,0.093c1.124,0,2.221-0.163,3.281-0.437c1.782,1.555,3.981,2.469,6.375,2.469
			c4.41,0,8.207-3.129,9.844-7.594c2.511,1.395,5.469,2.187,8.625,2.187c6.44,0,12.007-3.329,14.75-8.218
			c1.917,0.705,4.024,1.093,6.219,1.093c9.153,0,16.563-6.756,16.563-15.093c0-0.988-0.114-1.941-0.313-2.875
			c1.276-2.14,2-4.582,2-7.188c0-4.867-2.544-9.178-6.469-11.938c0.382-1.271,0.594-2.62,0.594-4c0-8.338-7.44-15.094-16.594-15.094
			c-0.81,0-1.597,0.085-2.375,0.187c0.319-1.138,0.5-2.305,0.5-3.531c0-8.106-7.409-14.688-16.563-14.688
			c-0.265,0-0.52,0.021-0.781,0.031c-1.849-3.754-5.317-6.281-9.281-6.281c-1.549,0-3.015,0.4-4.344,1.094
			c-4.103-7.03-13.999-12.339-26.125-13.75c0.017-0.271,0.063-0.538,0.063-0.813C290.207,6.778,282.798,0.228,273.645,0.228
			L273.645,0.228z M315.364,54.916c0.618,1.318,1.467,2.534,2.469,3.625c-0.92-0.122-1.867-0.206-2.813-0.281
			c0.245-1.004,0.344-2.026,0.344-3.094C315.364,55.082,315.366,55,315.364,54.916L315.364,54.916z"/>
		<path id="Shape_2_" sketch:type="MSShapeGroup" fill="#734B02" stroke="#000000" stroke-width="1.0663" d="M161.42,114.539
			c1.451,0,2.805,0.422,3.954,1.134h0.1c4.024,0,7.318,3.156,7.52,7.131c0.007,0.128,0,0.259,0,0.389c0,1.089-0.24,2.12-0.655,3.055
			c0.802,1.196,1.266,2.628,1.266,4.177c0,0.129,0.007,0.26,0,0.389c-0.201,3.975-3.495,7.131-7.52,7.131
			c-0.397,0-0.785-0.03-1.167-0.09c-1.18,0.771-2.595,1.223-4.109,1.223c-1.468,0-2.841-0.418-3.999-1.145
			c-0.147,0.01-0.294,0.012-0.444,0.012c-4.154,0-7.531-3.365-7.531-7.52c0-1.095,0.245-2.131,0.667-3.066
			c-0.804-1.193-1.277-2.617-1.277-4.165c0-4.154,3.376-7.52,7.531-7.52c0.507,0,1,0.05,1.478,0.144
			C158.431,115.011,159.867,114.539,161.42,114.539L161.42,114.539z"/>
		<path id="Shape_3_" sketch:type="MSShapeGroup" fill="#3B2906" d="M163.32,116.942c1.451,0,2.806,0.421,3.954,1.133h0.1
			c4.024,0,7.318,3.156,7.52,7.131c0.007,0.128,0,0.259,0,0.389c0,1.089-0.24,2.12-0.655,3.055c0.801,1.195,1.266,2.627,1.266,4.176
			c0,0.13,0.007,0.261,0,0.389c-0.202,3.975-3.496,7.131-7.52,7.131c-0.397,0-0.785-0.029-1.166-0.088
			c-1.18,0.77-2.595,1.221-4.11,1.221c-1.467,0-2.841-0.417-3.999-1.144c-0.147,0.009-0.295,0.011-0.444,0.011
			c-4.154,0-7.531-3.365-7.531-7.52c0-1.094,0.245-2.129,0.667-3.065c-0.804-1.192-1.277-2.618-1.277-4.165
			c0-4.154,3.376-7.52,7.531-7.52c0.507,0,0.999,0.049,1.477,0.145C160.331,117.412,161.767,116.942,163.32,116.942L163.32,116.942z
			"/>
		<path id="Shape_4_" sketch:type="MSShapeGroup" fill="#734B02" stroke="#000000" stroke-width="1.0663" d="M244.521,113.997
			c1.451,0,2.805,0.421,3.954,1.133h0.1c4.024,0,7.318,3.157,7.521,7.131c0.006,0.128,0,0.259,0,0.389
			c0,1.089-0.24,2.12-0.656,3.055c0.802,1.196,1.267,2.628,1.267,4.177c0,0.129,0.007,0.26,0,0.389
			c-0.202,3.975-3.495,7.131-7.52,7.131c-0.397,0-0.785-0.029-1.167-0.09c-1.18,0.771-2.594,1.223-4.109,1.223
			c-1.467,0-2.841-0.418-3.998-1.145c-0.148,0.01-0.295,0.012-0.445,0.012c-4.154,0-7.53-3.365-7.53-7.52
			c0-1.095,0.245-2.131,0.667-3.066c-0.805-1.193-1.277-2.617-1.277-4.165c0-4.154,3.376-7.52,7.53-7.52
			c0.507,0,0.999,0.05,1.478,0.144C241.532,114.468,242.968,113.996,244.521,113.997L244.521,113.997z"/>
		<path id="Shape_5_" sketch:type="MSShapeGroup" fill="#3B2906" d="M246.42,116.399c1.451,0,2.806,0.421,3.954,1.133h0.1
			c4.025,0,7.318,3.156,7.52,7.131c0.008,0.128,0,0.259,0,0.389c0,1.089-0.239,2.121-0.654,3.055
			c0.801,1.195,1.266,2.627,1.266,4.176c0,0.131,0.008,0.261,0,0.389c-0.201,3.975-3.495,7.131-7.52,7.131
			c-0.397,0-0.785-0.029-1.166-0.088c-1.181,0.77-2.595,1.221-4.109,1.221c-1.468,0-2.842-0.417-3.999-1.144
			c-0.147,0.009-0.295,0.011-0.444,0.011c-4.154,0-7.531-3.365-7.531-7.52c0-1.094,0.245-2.129,0.666-3.065
			c-0.803-1.192-1.277-2.618-1.277-4.165c0-4.154,3.377-7.52,7.531-7.52c0.508,0,1,0.049,1.478,0.145
			C243.431,116.869,244.867,116.399,246.42,116.399L246.42,116.399z"/>
		<path id="Shape_6_" sketch:type="MSShapeGroup" fill="#734B02" stroke="#000000" stroke-width="1.645" d="M353.454,67.412
			c2.238,0,4.328,0.65,6.101,1.748h0.154c6.208,0,11.29,4.87,11.601,11.001c0.011,0.198,0,0.399,0,0.6
			c0,1.681-0.369,3.271-1.011,4.712c1.236,1.846,1.953,4.054,1.953,6.443c0,0.2,0.011,0.402,0,0.6
			c-0.311,6.132-5.392,11.002-11.601,11.002c-0.613,0-1.211-0.047-1.799-0.138c-1.821,1.188-4.004,1.885-6.341,1.885
			c-2.264,0-4.383-0.644-6.169-1.765c-0.227,0.014-0.455,0.018-0.686,0.018c-6.408,0-11.617-5.192-11.617-11.602
			c0-1.688,0.377-3.285,1.027-4.729c-1.24-1.841-1.971-4.038-1.971-6.426c0-6.409,5.209-11.601,11.618-11.601
			c0.782,0,1.542,0.076,2.279,0.223C348.843,68.139,351.058,67.412,353.454,67.412L353.454,67.412z"/>
		<path id="Shape_7_" sketch:type="MSShapeGroup" fill="#3B2906" d="M356.385,71.117c2.239,0,4.328,0.65,6.101,1.748h0.154
			c6.209,0,11.29,4.87,11.601,11.001c0.011,0.197,0,0.399,0,0.6c0,1.68-0.37,3.271-1.011,4.713c1.236,1.845,1.953,4.053,1.953,6.443
			c0,0.199,0.011,0.401,0,0.6c-0.311,6.131-5.393,11-11.601,11c-0.614,0-1.212-0.045-1.8-0.137c-1.82,1.188-4.002,1.885-6.34,1.885
			c-2.264,0-4.383-0.645-6.169-1.765c-0.228,0.015-0.454,0.017-0.685,0.017c-6.41,0-11.619-5.191-11.619-11.6
			c0-1.689,0.378-3.286,1.028-4.73c-1.239-1.84-1.97-4.038-1.97-6.426c0-6.408,5.209-11.601,11.617-11.601
			c0.783,0,1.542,0.076,2.279,0.223C351.775,71.843,353.99,71.117,356.385,71.117L356.385,71.117z"/>
		<path id="Shape_8_" sketch:type="MSShapeGroup" fill="#734B02" stroke="#000000" stroke-width="1.1307" d="M303.212,46.938
			c1.539,0,2.975,0.447,4.193,1.202h0.105c4.268,0,7.761,3.347,7.975,7.562c0.007,0.136,0,0.274,0,0.412
			c0,1.155-0.254,2.249-0.695,3.239c0.85,1.268,1.343,2.786,1.343,4.429c0,0.138,0.007,0.276,0,0.412
			c-0.214,4.214-3.706,7.562-7.974,7.562c-0.422,0-0.832-0.032-1.236-0.094c-1.252,0.817-2.752,1.295-4.358,1.295
			c-1.556,0-3.013-0.442-4.239-1.213c-0.156,0.01-0.313,0.012-0.472,0.012c-4.405,0-7.985-3.569-7.985-7.974
			c0-1.16,0.26-2.258,0.707-3.251c-0.854-1.265-1.355-2.775-1.355-4.417c0-4.405,3.58-7.974,7.986-7.974
			c0.537,0,1.059,0.053,1.566,0.153C300.043,47.438,301.566,46.938,303.212,46.938L303.212,46.938z"/>
		<path id="Shape_9_" sketch:type="MSShapeGroup" opacity="0.8025" fill="#3B2906" enable-background="new    " d="M306.905,51.162
			c1.538,0,2.975,0.447,4.192,1.201h0.106c4.268,0,7.761,3.347,7.974,7.562c0.008,0.136,0,0.275,0,0.413
			c0,1.154-0.254,2.249-0.695,3.239c0.851,1.268,1.344,2.786,1.344,4.429c0,0.138,0.006,0.276,0,0.412
			c-0.214,4.214-3.707,7.562-7.975,7.562c-0.422,0-0.832-0.032-1.236-0.095c-1.252,0.817-2.752,1.296-4.357,1.296
			c-1.557,0-3.014-0.443-4.24-1.213c-0.156,0.01-0.313,0.012-0.472,0.012c-4.405,0-7.985-3.569-7.985-7.974
			c0-1.161,0.26-2.259,0.707-3.251c-0.853-1.265-1.355-2.775-1.355-4.417c0-4.405,3.581-7.974,7.986-7.974
			c0.537,0,1.06,0.053,1.566,0.153C303.736,51.661,305.257,51.162,306.905,51.162L306.905,51.162z"/>
		<path id="Shape_10_" sketch:type="MSShapeGroup" fill="#734B02" stroke="#000000" stroke-width="1.0663" d="M31.49,80.45
			c1.451,0,2.805,0.421,3.954,1.133h0.1c4.024,0,7.318,3.156,7.52,7.131c0.007,0.128,0,0.259,0,0.389
			c0,1.089-0.24,2.121-0.655,3.055c0.802,1.195,1.266,2.627,1.266,4.176c0,0.131,0.007,0.261,0,0.389
			c-0.201,3.975-3.495,7.131-7.52,7.131c-0.397,0-0.785-0.029-1.167-0.088c-1.18,0.77-2.595,1.221-4.109,1.221
			c-1.468,0-2.841-0.417-3.999-1.144c-0.147,0.009-0.294,0.011-0.444,0.011c-4.154,0-7.531-3.365-7.531-7.52
			c0-1.094,0.245-2.129,0.667-3.065c-0.804-1.192-1.277-2.618-1.277-4.165c0-4.154,3.376-7.52,7.531-7.52
			c0.507,0,1,0.049,1.478,0.145C28.501,80.92,29.937,80.45,31.49,80.45L31.49,80.45z"/>
		<path id="Shape_11_" sketch:type="MSShapeGroup" fill="#3B2906" d="M33.39,82.85c1.451,0,2.806,0.422,3.955,1.133h0.1
			c4.024,0,7.318,3.157,7.52,7.131c0.007,0.129,0,0.26,0,0.389c0,1.09-0.24,2.121-0.655,3.055c0.801,1.196,1.266,2.628,1.266,4.177
			c0,0.13,0.007,0.261,0,0.389c-0.202,3.975-3.495,7.132-7.52,7.132c-0.397,0-0.785-0.031-1.166-0.09
			c-1.18,0.771-2.595,1.223-4.11,1.223c-1.467,0-2.841-0.418-3.999-1.145c-0.147,0.009-0.295,0.011-0.444,0.011
			c-4.154,0-7.531-3.365-7.531-7.52c0-1.095,0.245-2.13,0.667-3.065c-0.804-1.193-1.277-2.617-1.277-4.166
			c0-4.154,3.376-7.52,7.531-7.52c0.507,0,0.999,0.05,1.477,0.145C30.401,83.321,31.837,82.85,33.39,82.85L33.39,82.85z"/>
		<path id="Shape_12_" sketch:type="MSShapeGroup" fill="#734B02" stroke="#000000" stroke-width="1.0663" d="M108.651,85.481
			c1.451,0,2.805,0.422,3.954,1.133h0.1c4.024,0,7.318,3.157,7.52,7.131c0.007,0.129,0,0.26,0,0.39c0,1.089-0.24,2.12-0.655,3.054
			c0.802,1.197,1.266,2.628,1.266,4.178c0,0.129,0.007,0.26,0,0.389c-0.201,3.974-3.495,7.131-7.52,7.131
			c-0.397,0-0.785-0.03-1.167-0.09c-1.18,0.771-2.595,1.223-4.109,1.223c-1.467,0-2.841-0.418-3.999-1.145
			c-0.147,0.01-0.294,0.012-0.444,0.012c-4.154,0-7.531-3.366-7.531-7.52c0-1.096,0.245-2.131,0.667-3.066
			c-0.804-1.193-1.277-2.617-1.277-4.165c0-4.154,3.376-7.521,7.531-7.521c0.507,0,1,0.05,1.478,0.145
			C105.661,85.951,107.098,85.481,108.651,85.481L108.651,85.481z"/>
		<path id="Shape_13_" sketch:type="MSShapeGroup" fill="#3B2906" fill-opacity="0.507" d="M110.55,87.883
			c1.451,0,2.806,0.421,3.955,1.133h0.1c4.024,0,7.318,3.156,7.52,7.131c0.007,0.128,0,0.258,0,0.389c0,1.088-0.24,2.12-0.655,3.055
			c0.801,1.195,1.266,2.627,1.266,4.176c0,0.13,0.007,0.261,0,0.389c-0.202,3.975-3.495,7.131-7.52,7.131
			c-0.398,0-0.786-0.029-1.167-0.089c-1.18,0.771-2.595,1.222-4.11,1.222c-1.467,0-2.841-0.417-3.999-1.144
			c-0.147,0.009-0.295,0.011-0.444,0.011c-4.154,0-7.531-3.365-7.531-7.52c0-1.094,0.245-2.13,0.667-3.065
			c-0.804-1.193-1.277-2.618-1.277-4.165c0-4.154,3.376-7.52,7.531-7.52c0.507,0,0.999,0.049,1.477,0.144
			C107.561,88.354,108.997,87.882,110.55,87.883L110.55,87.883z"/>
		<path id="Shape_14_" sketch:type="MSShapeGroup" fill="#734B02" stroke="#000000" stroke-width="0.8479" d="M273.04,76.147
			c1.463,0,2.829,0.264,3.986,0.71h0.102c4.057,0,7.378,1.979,7.581,4.472c0.007,0.081,0,0.163,0,0.244
			c0,0.684-0.241,1.33-0.661,1.916c0.809,0.75,1.277,1.648,1.277,2.619c0,0.082,0.007,0.164,0,0.244
			c-0.203,2.492-3.523,4.473-7.582,4.473c-0.4,0-0.791-0.02-1.176-0.057c-1.189,0.484-2.615,0.768-4.143,0.768
			c-1.479,0-2.864-0.263-4.031-0.719c-0.148,0.007-0.297,0.008-0.448,0.008c-4.188,0-7.593-2.111-7.593-4.717
			c0-0.686,0.248-1.336,0.672-1.922c-0.81-0.748-1.287-1.643-1.287-2.613c0-2.605,3.404-4.716,7.592-4.716
			c0.512,0,1.008,0.031,1.49,0.091C270.028,76.442,271.476,76.147,273.04,76.147L273.04,76.147z"/>
		<path id="Shape_15_" sketch:type="MSShapeGroup" fill="#3B2906" fill-opacity="0.507" d="M274.956,77.653
			c1.463,0,2.828,0.264,3.986,0.71h0.101c4.058,0,7.378,1.979,7.581,4.473c0.008,0.08,0,0.162,0,0.243
			c0,0.684-0.242,1.33-0.66,1.916c0.808,0.75,1.276,1.648,1.276,2.619c0,0.082,0.007,0.164,0,0.244
			c-0.203,2.492-3.524,4.473-7.581,4.473c-0.4,0-0.792-0.02-1.176-0.057c-1.189,0.484-2.616,0.768-4.144,0.768
			c-1.479,0-2.864-0.263-4.031-0.719c-0.148,0.007-0.298,0.008-0.448,0.008c-4.188,0-7.592-2.111-7.592-4.717
			c0-0.686,0.246-1.336,0.672-1.922c-0.811-0.748-1.288-1.643-1.288-2.613c0-2.605,3.404-4.716,7.593-4.716
			c0.511,0,1.008,0.031,1.489,0.091C271.943,77.948,273.39,77.653,274.956,77.653L274.956,77.653z"/>
		<path id="Shape_16_" sketch:type="MSShapeGroup" fill="#734B02" stroke="#000000" stroke-width="0.8479" d="M81.753,45.995
			c1.463,0,2.828,0.265,3.986,0.711h0.101c4.058,0,7.378,1.979,7.581,4.472c0.007,0.081,0,0.163,0,0.244
			c0,0.683-0.241,1.33-0.661,1.916c0.808,0.75,1.277,1.648,1.277,2.619c0,0.082,0.007,0.164,0,0.244
			c-0.203,2.493-3.524,4.472-7.581,4.472c-0.401,0-0.792-0.019-1.176-0.056c-1.19,0.483-2.616,0.766-4.144,0.766
			c-1.479,0-2.864-0.262-4.031-0.717c-0.148,0.006-0.297,0.007-0.448,0.007c-4.188,0-7.592-2.111-7.592-4.716
			c0-0.686,0.247-1.335,0.672-1.922c-0.811-0.749-1.288-1.642-1.288-2.612c0-2.605,3.404-4.716,7.592-4.716
			c0.512,0,1.008,0.031,1.49,0.09C78.739,46.291,80.187,45.995,81.753,45.995L81.753,45.995z"/>
		<path id="Shape_17_" sketch:type="MSShapeGroup" fill="#3B2906" fill-opacity="0.507" d="M83.668,47.501
			c1.463,0,2.828,0.264,3.986,0.71h0.101c4.057,0,7.378,1.979,7.581,4.472c0.007,0.081,0,0.163,0,0.244
			c0,0.683-0.242,1.33-0.661,1.916c0.808,0.75,1.276,1.648,1.276,2.619c0,0.082,0.007,0.164,0,0.244
			c-0.203,2.493-3.524,4.472-7.581,4.472c-0.401,0-0.792-0.019-1.176-0.056c-1.19,0.483-2.616,0.766-4.143,0.766
			c-1.479,0-2.864-0.262-4.031-0.717c-0.148,0.006-0.297,0.007-0.448,0.007c-4.188,0-7.592-2.111-7.592-4.716
			c0-0.686,0.247-1.335,0.672-1.922c-0.81-0.749-1.288-1.642-1.288-2.613c0-2.605,3.404-4.716,7.592-4.716
			c0.511,0,1.007,0.031,1.489,0.09C80.655,47.797,82.102,47.501,83.668,47.501L83.668,47.501z"/>
		<path id="Shape_18_" sketch:type="MSShapeGroup" fill="#734B02" stroke="#000000" stroke-width="1.3064" d="M206.584,62.513
			c2.254,0,4.357,0.407,6.142,1.095h0.156c6.251,0,11.367,3.05,11.68,6.891c0.012,0.124,0,0.25,0,0.375
			c0,1.052-0.372,2.049-1.018,2.952c1.245,1.156,1.967,2.54,1.967,4.036c0,0.125,0.011,0.252,0,0.376
			c-0.313,3.841-5.43,6.891-11.681,6.891c-0.618,0-1.22-0.028-1.812-0.085c-1.833,0.744-4.03,1.18-6.384,1.18
			c-2.279,0-4.413-0.403-6.211-1.105c-0.229,0.01-0.458,0.012-0.69,0.012c-6.453,0-11.698-3.253-11.698-7.268
			c0-1.057,0.38-2.058,1.036-2.962c-1.249-1.153-1.984-2.529-1.984-4.025c0-4.015,5.245-7.267,11.697-7.267
			c0.788,0,1.553,0.048,2.295,0.14C201.941,62.969,204.171,62.513,206.584,62.513L206.584,62.513z"/>
		<path id="Shape_19_" sketch:type="MSShapeGroup" fill="#3B2906" fill-opacity="0.507" d="M209.535,64.833
			c2.254,0,4.358,0.408,6.143,1.095h0.155c6.251,0,11.368,3.05,11.681,6.891c0.011,0.124,0,0.25,0,0.375
			c0,1.052-0.373,2.05-1.018,2.952c1.244,1.155,1.967,2.539,1.967,4.035c0,0.125,0.01,0.252,0,0.376
			c-0.313,3.841-5.43,6.891-11.681,6.891c-0.618,0-1.22-0.028-1.812-0.086c-1.834,0.744-4.031,1.181-6.384,1.181
			c-2.279,0-4.413-0.403-6.212-1.105c-0.229,0.009-0.457,0.011-0.689,0.011c-6.453,0-11.697-3.252-11.697-7.267
			c0-1.057,0.379-2.059,1.035-2.963c-1.249-1.152-1.984-2.529-1.984-4.024c0-4.014,5.244-7.267,11.697-7.267
			c0.788,0,1.553,0.048,2.295,0.14C204.892,65.289,207.122,64.833,209.535,64.833L209.535,64.833z"/>
	</g>
</g>
</svg>
