<?xml version="1.0" encoding="utf-8"?>
<!-- Generator: Adobe Illustrator 16.0.0, SVG Export Plug-In . SVG Version: 6.00 Build 0)  -->
<!DOCTYPE svg PUBLIC "-//W3C//DTD SVG 1.1//EN" "http://www.w3.org/Graphics/SVG/1.1/DTD/svg11.dtd">
<svg version="1.1" id="Layer_1" xmlns:sketch="http://www.bohemiancoding.com/sketch/ns"
	 xmlns="http://www.w3.org/2000/svg" xmlns:xlink="http://www.w3.org/1999/xlink" x="0px" y="0px" width="197px" height="276px"
	 viewBox="0 0 197 276" enable-background="new 0 0 197 276" xml:space="preserve">
<title>mole</title>
<desc>Created with Sketch.</desc>
<g id="Page-1" sketch:type="MSPage">
	<g id="mole" transform="translate(3.323440, 2.016670)" sketch:type="MSLayerGroup">
		<path id="Shape" sketch:type="MSShapeGroup" fill="#595959" stroke="#212121" stroke-width="3" d="M94.768,0.91
			c-0.244,0-0.574,0.038-0.839,0.042v0.042C79.303,1.164,43.747,4.26,30.667,36.13c-6.519-8.665-0.005,0.003-21.031-19.94
			c0,0-26.38,25.848,9.613,44.204C31.751,176.386,6.281,220.959,80.286,219.366c4.216-0.092,8.845-0.029,13.643,0.084h0.126
			l2.182,0.041v-0.084c4.803-0.113,9.424-0.174,13.644-0.084c74.005,1.594,48.534-42.979,61.036-158.972
			c35.994-18.356,9.613-44.204,9.613-44.204c-21.025,19.943-14.512,11.275-21.031,19.94C145.978,3.142,108.372,0.91,94.768,0.91
			L94.768,0.91z"/>
		<path id="Shape_1_" sketch:type="MSShapeGroup" fill="#B6B6CE" stroke="#000000" stroke-width="2.7051" d="M166.444,194.155
			c0,42.528-31.198,77.004-69.683,77.004s-69.682-34.476-69.682-77.004c0-42.529,31.198-77.005,69.682-77.005
			S166.444,151.626,166.444,194.155L166.444,194.155z"/>
		<path id="Shape_2_" sketch:type="MSShapeGroup" fill="#686889" d="M95.721,118.044c37.427,1.331,67.416,35.262,67.416,76.946
			c0,39.342-26.695,71.759-61.162,76.401c24.049-6.715,42.23-38.119,42.23-75.855c0-40.953-21.404-74.458-48.484-77.03V118.044
			L95.721,118.044z"/>
		<path id="Shape_3_" sketch:type="MSShapeGroup" fill="#C1C1C8" d="M95.54,116.904c-37.428,1.331-67.417,35.263-67.417,76.946
			c0,39.342,26.697,71.758,61.163,76.4c-24.048-6.713-42.23-38.117-42.23-75.854c0-40.954,21.404-74.458,48.485-77.03V116.904
			L95.54,116.904z"/>
		<path id="Shape_4_" sketch:type="MSShapeGroup" fill="#FFFFFF" stroke="#212121" stroke-width="3" d="M69.512,29.448
			c-17.275,0-31.304,16.22-31.304,36.208c0,19.988,14.029,36.206,31.304,36.206c10.152,0,19.16-5.607,24.878-14.283
			c5.717,8.682,14.747,14.283,24.904,14.283c17.27,0,31.301-16.222,31.301-36.206c0-19.985-14.031-36.208-31.301-36.208
			c-10.155,0-19.187,5.605-24.904,14.285C88.672,35.059,79.663,29.448,69.512,29.448L69.512,29.448z"/>
		<path id="Shape_5_" sketch:type="MSShapeGroup" opacity="0.3374" fill="#A5A5A5" enable-background="new    " d="M134.866,32.948
			c0.383,2.297,0.564,4.684,0.564,7.11c0,20.64-14.465,37.373-32.301,37.373c-10.491,0-19.849-5.774-25.754-14.741
			c-5.907,8.961-15.182,14.741-25.667,14.741c-5.202,0-10.125-1.417-14.481-3.946c2.873,17.247,15.994,30.306,31.736,30.306
			c10.485,0,19.804-5.823,25.71-14.785c5.905,8.967,15.218,14.785,25.71,14.785c17.836,0,32.344-16.776,32.344-37.417
			C152.729,51.749,145.45,39.094,134.866,32.948L134.866,32.948z"/>
		<g id="Group" transform="translate(73.930691, 58.411444)" sketch:type="MSShapeGroup">
			<path id="Shape_6_" fill="#212121" stroke="#212121" stroke-width="3.4763" d="M18.482,9.695c0,5.004-4.059,9.062-9.063,9.062
				s-9.062-4.058-9.062-9.062c0-5.006,4.06-9.063,9.062-9.063C14.425,0.633,18.482,4.689,18.482,9.695L18.482,9.695z"/>
			<path id="Shape_7_" fill="#FFFFFF" d="M8.5,6.521c0,1.298-1.054,2.35-2.351,2.35c-1.298,0-2.35-1.052-2.35-2.35
				c0-1.297,1.052-2.351,2.35-2.351C7.447,4.17,8.5,5.223,8.5,6.521L8.5,6.521z"/>
		</g>
		<g id="Group_1_" transform="translate(97.170814, 58.411444)" sketch:type="MSShapeGroup">
			<path id="Shape_8_" fill="#212121" stroke="#212121" stroke-width="3.4763" d="M18.193,9.695c0,5.004-4.058,9.062-9.063,9.062
				c-5.006,0-9.063-4.058-9.063-9.062c0-5.006,4.057-9.063,9.063-9.063C14.138,0.631,18.193,4.689,18.193,9.695L18.193,9.695z"/>
			<path id="Shape_9_" fill="#FFFFFF" d="M8.209,6.521c0,1.298-1.051,2.35-2.349,2.35s-2.349-1.052-2.349-2.35
				c0-1.297,1.051-2.351,2.349-2.351S8.209,5.223,8.209,6.521L8.209,6.521z"/>
		</g>
		<path id="Shape_10_" sketch:type="MSShapeGroup" fill="#FCD4DF" stroke="#000000" stroke-width="1.3433" d="M7.263,25.594
			c0,0-13.645,15.815,10.074,30.811c3.808-3.689,4.353-4.342,8.832-7.894v-2.854c-5.427-2.959-2.922-6.831-11.771-17.832
			L7.263,25.594L7.263,25.594z"/>
		<path id="Shape_11_" sketch:type="MSShapeGroup" fill="#FCD4DF" stroke="#000000" stroke-width="1.3433" d="M184.264,26.297
			c0,0,13.645,15.815-10.074,30.811c-3.809-3.689-4.354-4.342-8.832-7.894V46.36c5.426-2.96,2.922-6.831,11.771-17.832
			L184.264,26.297L184.264,26.297z"/>
		<path id="Shape_12_" sketch:type="MSShapeGroup" fill="#7F7F8D" d="M86.708,120.297c37.428,1.331,67.417,35.262,67.417,76.946
			c0,39.342-26.696,71.759-61.162,76.401c24.048-6.714,42.229-38.118,42.229-75.854c0-40.954-21.403-74.458-48.484-77.031V120.297
			L86.708,120.297z"/>
		<path id="Shape_13_" sketch:type="MSShapeGroup" fill="#F3BB14" stroke="#000000" stroke-width="2.6866" d="M95.053,91.069
			c-11.545,0-21.502,5.691-26.068,13.89c-10.532,3.253-17.295,8.355-17.295,14.08c0,1.577,0.546,3.12,1.511,4.576
			c-0.725,1.689-1.091,3.448-1.091,5.253c0,13.042,19.999,23.61,44.666,23.61c24.666,0,44.664-10.567,44.664-23.61
			c0-2.076-0.518-4.093-1.469-6.011c0.67-1.226,1.05-2.512,1.05-3.818c0-6.268-8.121-11.778-20.401-14.946
			C115.85,96.358,106.19,91.069,95.053,91.069L95.053,91.069z"/>
		<path id="Shape_14_" sketch:type="MSShapeGroup" fill="#212121" d="M111.403,98.953c0,8.711-7.062,15.773-15.773,15.773
			c-8.711,0-15.773-7.062-15.773-15.773c0-8.711,7.062-15.773,15.773-15.773C104.342,83.18,111.403,90.242,111.403,98.953
			L111.403,98.953z"/>
		
			<linearGradient id="Shape_18_" gradientUnits="userSpaceOnUse" x1="-46.3986" y1="160.1425" x2="-45.227" y2="160.1425" gradientTransform="matrix(17.8781 0 0 -27.2428 904.4684 4509.312)">
			<stop  offset="0" style="stop-color:#8A8A8A"/>
			<stop  offset="0.2857" style="stop-color:#F1F1F1"/>
			<stop  offset="1" style="stop-color:#FFFFFF"/>
		</linearGradient>
		<path id="Shape_15_" sketch:type="MSShapeGroup" fill="url(#Shape_18_)" stroke="#212121" stroke-width="2" d="M76.485,132.95
			h17.878v27.242H76.485V132.95z"/>
		
			<linearGradient id="Shape_19_" gradientUnits="userSpaceOnUse" x1="-46.3996" y1="160.1425" x2="-45.2279" y2="160.1425" gradientTransform="matrix(17.8781 0 0 -27.2428 922.5773 4508.8096)">
			<stop  offset="0" style="stop-color:#8A8A8A"/>
			<stop  offset="0.2857" style="stop-color:#F1F1F1"/>
			<stop  offset="1" style="stop-color:#FFFFFF"/>
		</linearGradient>
		<path id="Shape_16_" sketch:type="MSShapeGroup" fill="url(#Shape_19_)" stroke="#212121" stroke-width="2" d="M94.581,132.444
			h17.878v27.242H94.581V132.444z"/>
		<path id="Shape_17_" sketch:type="MSShapeGroup" fill="none" stroke="#212121" stroke-width="3" d="M59.578,123.739
			c25.973,14.497,50.262,12.157,73.231-3.38"/>
	</g>
</g>
</svg>
